<svg width="10" height="66" viewBox="0 0 10 66" fill="none" xmlns="http://www.w3.org/2000/svg">
<path fill-rule="evenodd" clip-rule="evenodd" d="M5 0C2.23858 0 0 2.23858 0 5V5.16992L10 10.9434V5C10 2.23858 7.76142 0 5 0ZM10 22.4904L0 16.7169V24.8301L10 30.6036V22.4904ZM10 42.1506L0 36.3771V44.4902L10 50.2637V42.1506ZM9.94012 61.7762L0 56.0372V61C0 63.7614 2.23858 66 5 66C7.49742 66 9.56719 64.169 9.94012 61.7762Z" fill="#00C6AE"/>
<path fill-rule="evenodd" clip-rule="evenodd" d="M0 16.7169V5.16992L10 10.9434V22.4904L0 16.7169ZM0 36.3771V24.8301L10 30.6036V42.1506L0 36.3771ZM0 56.0372V44.4902L10 50.2637V61C10 61.264 9.97954 61.5232 9.94012 61.7762L0 56.0372Z" fill="#61E4C5"/>
</svg>
